:SAMPLES-PER-SECOND 30
:FULLY-SPECIFIED
:DEGREES
17
root  1.43006 40.975 1.08417 174.402 -86.6769 -177.393
RightUpLeg  0.239953 -8.73996 -6.65754
RightLeg  4.18061 -4.53312 3.38179
RightFoot  0.502845 -0.0461315 0.454252
RightToes  0.000482159 0.542163 -0.142577
Spine  6.15753 0.442657 -1.57531
Spine1  0.591032 0.162933 1.35431
HEad  1.71702 -12.2639 0.0873658
LeftShoulder1  0.852046 -2.64776 -6.07822
LeftArm  -20.5879 11.7523 -4.79414
LeftForeArm  1.03136 -0.313072 -0.158461
LeftHand  -0.25398 0.0180481 5.50724
RightShoulder  0.51937 0.587265 4.85513
RightArm  -17.1991 1.68646 1.46298
RightForeArm  5.04299 1.1329 3.94489
RightHand  -2.47616 7.87768 -21.8392
LeftUpLeg  1.70721 5.60724 2.95467
LeftLeg  4.3751 13.2245 -3.44516
LeftFoot  -3.62736 -0.0258794 0.767677
LeftToes  1.06247e-005 4.65855e-005 -8.18501e-006
18
root  1.42151 40.9714 1.12651 174.908 -86.5174 -177.828
RightUpLeg  0.113345 -8.79243 -6.73759
RightLeg  4.23816 -4.30908 3.40094
RightFoot  0.49701 -0.0476222 0.435779
RightToes  0.000482159 0.542163 -0.142577
Spine  6.09227 0.398945 -1.52485
Spine1  0.70548 0.116259 1.36013
HEad  1.8331 -12.0293 0.0403572
LeftShoulder1  0.873893 -2.66501 -6.43268
LeftArm  -20.8406 12.2064 -5.18991
LeftForeArm  2.02782 -0.918253 -0.0795178
LeftHand  -0.25398 0.0180481 5.50724
RightShoulder  0.521766 0.513964 5.18677
RightArm  -17.6102 2.02713 1.89051
RightForeArm  3.94676 1.51489 3.97283
RightHand  -2.6393 8.22729 -22.6424
LeftUpLeg  1.65807 5.54705 2.84944
LeftLeg  4.38944 13.4848 -3.41506
LeftFoot  -3.76524 -0.0237524 0.734618
LeftToes  1.06247e-005 4.65855e-005 -8.18501e-006
19
root  1.41604 40.9631 1.18378 175.729 -86.3863 -178.622
RightUpLeg  0.000645652 -8.91559 -6.90349
RightLeg  4.37673 -4.01771 3.44989
RightFoot  0.444478 -0.0549984 0.508133
RightToes  0.000482159 0.542163 -0.142577
Spine  6.07275 0.307796 -1.41162
Spine1  0.793126 0.0310875 1.32239
HEad  2.28809 -11.8428 -0.171946
LeftShoulder1  0.94048 -2.79457 -7.28718
LeftArm  -21.1918 12.6709 -5.67833
LeftForeArm  4.36351 -1.36331 0.115591
LeftHand  -0.25398 0.0180481 5.50724
RightShoulder  0.560353 0.655648 5.73075
RightArm  -17.8682 2.06197 2.67165
RightForeArm  0.80968 2.252 4.21757
RightHand  -2.91373 8.81851 -23.9071
LeftUpLeg  1.59342 5.47213 2.70026
LeftLeg  4.52996 13.7087 -3.3499
LeftFoot  -4.00426 -0.00958827 0.524865
LeftToes  1.06247e-005 4.65855e-005 -8.18501e-006
20
root  1.40528 40.952 1.25428 176.234 -86.2872 -179.221
RightUpLeg  0.0124199 -9.0451 -7.09702
RightLeg  4.56528 -3.76883 3.47668
RightFoot  0.382721 -0.0678641 0.670139
RightToes  0.000482159 0.542163 -0.142577
Spine  6.04901 0.19415 -1.01909
Spine1  1.0708 -0.00945277 0.977833
HEad  3.20311 -11.969 -0.437295
LeftShoulder1  1.10838 -3.22945 -8.98742
LeftArm  -21.4424 12.8447 -6.00391
LeftForeArm  5.61986 -1.57726 0.240399
LeftHand  -0.25398 0.0180481 5.50724
RightShoulder  0.661927 1.11458 6.69451
RightArm  -17.7736 1.44795 3.70934
RightForeArm  -2.99202 3.53081 4.63096
RightHand  -3.11371 9.2038 -24.8361
LeftUpLeg  1.62243 5.44247 2.56481
LeftLeg  4.77101 13.8424 -3.27455
LeftFoot  -4.31017 0.0106167 0.252131
LeftToes  1.06247e-005 4.65855e-005 -8.18501e-006
21
root  1.38721 40.9405 1.33224 175.988 -86.1389 -179.161
RightUpLeg  0.120894 -9.07226 -7.21616
RightLeg  4.74156 -3.5686 3.41388
RightFoot  0.319394 -0.075222 0.758893
RightToes  0.000482159 0.542163 -0.142577
Spine  6.01784 0.105741 -0.298143
Spine1  1.55946 0.064818 0.23564
HEad  4.4804 -12.3443 -0.561227
LeftShoulder1  1.38568 -3.97362 -11.2968
LeftArm  -21.6267 12.8296 -6.37025
LeftForeArm  5.35117 -1.79512 0.250693
LeftHand  -0.25398 0.0180481 5.50724
RightShoulder  0.815384 1.69511 8.21871
RightArm  -17.3847 0.382923 4.97552
RightForeArm  -4.78504 5.27921 5.00647
RightHand  -3.10567 9.1038 -24.9317
LeftUpLeg  1.76337 5.52348 2.50613
LeftLeg  5.0286 13.9527 -3.25107
LeftFoot  -4.62691 0.0178649 0.18817
LeftToes  1.06247e-005 4.65855e-005 -8.18501e-006
22
root  1.36676 40.9273 1.4136 175.66 -85.8589 -179.03
RightUpLeg  0.183156 -9.03395 -7.29248
RightLeg  4.96929 -3.2507 3.29604
RightFoot  0.201365 -0.0795942 0.80073
RightToes  0.000482159 0.542163 -0.142577
Spine  6.04731 0.0783538 0.452719
Spine1  2.05913 0.219229 -0.569734
HEad  5.94201 -12.6946 -0.541018
LeftShoulder1  1.72031 -4.77777 -13.7823
LeftArm  -21.889 12.8908 -7.28409
LeftForeArm  5.03607 -2.29991 0.211489
LeftHand  -0.25398 0.0180481 5.50724
RightShoulder  0.98658 2.16778 10.1372
RightArm  -16.9162 -0.756724 6.6405
RightForeArm  -3.38268 7.21276 5.19513
RightHand  -3.02384 8.96995 -24.522
LeftUpLeg  1.97945 5.68576 2.50538
LeftLeg  5.20318 14.1313 -3.33578
LeftFoot  -4.92505 0.0145401 0.281217
LeftToes  1.06247e-005 4.65855e-005 -8.18501e-006
23
root  1.3443 40.9092 1.49382 175.69 -85.4375 -179.237
RightUpLeg  0.0982925 -9.05278 -7.38973
RightLeg  5.4182 -2.73656 3.18801
RightFoot  -0.00502362 -0.101453 1.02177
RightToes  0.000482159 0.542163 -0.142577
Spine  6.13255 0.122465 0.908531
Spine1  2.49254 0.365942 -1.00298
HEad  7.50681 -12.9304 -0.545824
LeftShoulder1  2.07325 -5.40683 -16.5121
LeftArm  -22.2674 12.8832 -8.84872
LeftForeArm  5.33666 -3.00764 0.152692
LeftHand  -0.25398 0.0180481 5.50724
RightShoulder  1.18424 2.61633 12.301
RightArm  -16.3485 -1.98137 8.65956
RightForeArm  -0.449853 9.14673 5.25421
RightHand  -3.03449 9.24378 -24.1685
LeftUpLeg  2.25512 5.90548 2.55648
LeftLeg  5.28601 14.3617 -3.53477
LeftFoot  -5.2467 0.0234755 0.151527
LeftToes  1.06247e-005 4.65855e-005 -8.18501e-006
24
root  1.3147 40.8825 1.5599 175.278 -84.897 -179.002
RightUpLeg  -0.157723 -9.14854 -7.39046
RightLeg  6.21291 -2.07919 3.01389
RightFoot  -0.355452 -0.133942 1.36656
RightToes  0.000482159 0.542163 -0.142577
Spine  6.15873 0.233794 1.07411
Spine1  3.0421 0.482963 -1.01207
HEad  9.11922 -13.1716 -0.632502
LeftShoulder1  2.4738 -5.87588 -19.8611
LeftArm  -22.608 12.347 -10.6504
LeftForeArm  5.40614 -3.44948 0.0440901
LeftHand  -0.25398 0.0180481 5.50724
RightShoulder  1.47006 3.26882 14.8865
RightArm  -15.272 -3.49726 10.6259
RightForeArm  1.42224 11.0313 5.30018
RightHand  -3.03794 9.42043 -23.9209
LeftUpLeg  2.53985 6.26691 2.75761
LeftLeg  5.46279 14.5768 -3.77871
LeftFoot  -5.69652 0.0496557 -0.314111
LeftToes  1.06247e-005 4.65855e-005 -8.18501e-006
25
root  1.27826 40.8391 1.59252 174.117 -84.2275 -178.042
RightUpLeg  -0.630415 -9.40001 -7.15333
RightLeg  7.47151 -1.07878 2.63789
RightFoot  -1.02245 -0.153694 1.62181
RightToes  0.000482159 0.542163 -0.142577
Spine  6.09422 0.390593 1.07861
Spine1  3.88126 0.593343 -0.848924
HEad  10.5638 -13.4201 -0.681677
LeftShoulder1  2.98181 -6.40658 -23.7949
LeftArm  -22.6366 11.2003 -12.3679
LeftForeArm  4.78483 -3.26411 -0.153778
LeftHand  -0.25398 0.0180481 5.50724
RightShoulder  1.8709 4.11255 18.0065
RightArm  -13.5324 -5.23271 12.3355
RightForeArm  1.87097 12.7549 5.38069
RightHand  -2.85925 8.82345 -23.4725
LeftUpLeg  2.72897 6.83452 3.16535
LeftLeg  6.00405 14.7435 -3.96303
LeftFoot  -6.34415 0.0748466 -0.840861
LeftToes  1.06247e-005 4.65855e-005 -8.18501e-006
26
root  1.24313 40.7652 1.57741 173.624 -83.4095 -177.803
RightUpLeg  -1.49297 -10.2348 -6.82179
RightLeg  9.56191 0.724514 2.09757
RightFoot  -2.10663 -0.188333 2.16457
RightToes  0.000482159 0.542163 -0.142577
Spine  6.11229 0.537096 0.752347
Spine1  4.93211 0.650252 -0.649755
HEad  11.5434 -13.4207 -0.620391
LeftShoulder1  3.62515 -7.18783 -27.7695
LeftArm  -22.2076 9.93255 -14.1374
LeftForeArm  4.21313 -2.59749 -0.457671
LeftHand  -0.25398 0.0180481 5.50724
RightShoulder  2.33032 4.93994 21.2782
RightArm  -11.2773 -6.95071 14.2289
RightForeArm  2.57968 14.1879 5.41743
RightHand  -2.54062 7.72004 -22.6339
LeftUpLeg  2.78192 7.50814 3.61439
LeftLeg  7.01338 14.8619 -4.02652
LeftFoot  -7.15781 0.0908599 -1.31279
LeftToes  1.06247e-005 4.65855e-005 -8.18501e-006
27
root  1.21495 40.6563 1.51306 175.097 -82.4641 -179.601
RightUpLeg  -2.99117 -11.8462 -6.66761
RightLeg  12.9138 3.05505 1.57753
RightFoot  -3.28023 -0.279006 3.64789
RightToes  0.000482159 0.542163 -0.142577
Spine  6.43108 0.583068 -0.195314
Spine1  5.92522 0.540298 -0.406448
HEad  11.9842 -12.8784 -0.505852
LeftShoulder1  4.36128 -8.1822 -31.2577
LeftArm  -21.4718 8.99888 -16.249
LeftForeArm  4.48818 -1.92786 -0.837776
LeftHand  -0.25398 0.0180481 5.50724
RightShoulder  2.77762 5.66153 24.148
RightArm  -9.00409 -8.62356 16.9654
RightForeArm  4.96707 15.2387 5.326
RightHand  -2.22344 6.80231 -21.3413
LeftUpLeg  2.76883 8.10777 3.85626
LeftLeg  8.32361 15.0396 -3.97917
LeftFoot  -8.05379 0.101591 -1.85753
LeftToes  1.06247e-005 4.65855e-005 -8.18501e-006
28
root  1.18735 40.5455 1.41431 177.463 -81.4392 177.711
RightUpLeg  -5.04641 -13.0069 -6.74493
RightLeg  17.0234 4.02278 1.19482
RightFoot  -3.80722 -0.396892 5.61011
RightToes  0.000482159 0.542163 -0.142577
Spine  7.08098 0.432455 -1.52027
Spine1  6.61988 0.20303 -0.182758
HEad  12.1122 -11.7172 -0.385411
LeftShoulder1  5.08341 -9.16516 -34.0669
LeftArm  -20.7355 8.34937 -18.8189
LeftForeArm  5.7235 -1.61993 -1.22903
LeftHand  -0.25398 0.0180481 5.50724
RightShoulder  3.18318 6.29484 26.4267
RightArm  -7.43061 -10.3695 20.795
RightForeArm  8.53075 15.758 5.1626
RightHand  -1.94308 6.1173 -19.8081
LeftUpLeg  2.83168 8.54093 3.89811
LeftLeg  9.45707 15.4732 -3.89523
LeftFoot  -8.8584 0.104755 -2.37471
LeftToes  1.06247e-005 4.65855e-005 -8.18501e-006
29
root  1.14132 40.4631 1.29383 179.428 -80.4041 175.556
RightUpLeg  -7.40301 -12.6363 -7.04619
RightLeg  20.8845 2.49033 0.825806
RightFoot  -3.58021 -0.468711 6.54559
RightToes  0.000482159 0.542163 -0.142577
Spine  7.87966 0.0569053 -2.7546
Spine1  6.96966 -0.326702 -0.105631
HEad  12.1667 -10.1053 -0.295018
LeftShoulder1  5.68661 -9.91369 -36.2845
LeftArm  -20.1538 7.61246 -21.7893
LeftForeArm  7.71543 -1.75171 -1.60176
LeftHand  -0.25398 0.0180481 5.50724
RightShoulder  3.50918 6.75166 28.218
RightArm  -7.07545 -12.2388 25.4875
RightForeArm  11.5427 15.5805 5.0788
RightHand  -1.69155 5.29336 -18.6054
LeftUpLeg  2.96561 8.80922 3.87957
LeftLeg  10.1651 16.1615 -3.80647
LeftFoot  -9.46575 0.101506 -2.72702
LeftToes  1.06247e-005 4.65855e-005 -8.18501e-006
